<svg width="20.000000" height="20.000000" viewBox="0 0 20 20" fill="none" xmlns="http://www.w3.org/2000/svg" xmlns:xlink="http://www.w3.org/1999/xlink">
	<desc>
			Created with Pixso.
	</desc>
	<defs>
		<clipPath id="clip16_15">
			<rect id="next 3" width="19.999998" height="20.000000" transform="matrix(-3.3709e-08 1 1 5.66818e-08 0 0)" fill="white" fill-opacity="0"/>
		</clipPath>
	</defs>
	<rect id="next 3" width="19.999998" height="20.000000" transform="matrix(-3.3709e-08 1 1 5.66818e-08 0 0)" fill="#FFFFFF" fill-opacity="0"/>
	<g clip-path="url(#clip16_15)">
		<path id="Vector" d="M9.21948 15.5559L0.31958 6.65564C0.113525 6.44983 0 6.17505 0 5.88196C0 5.58899 0.113525 5.31421 0.31958 5.1084L0.974854 4.45288C1.40186 4.02637 2.0957 4.02637 2.52197 4.45288L9.99585 11.9266L17.478 4.44458C17.6838 4.23877 17.9585 4.12512 18.2515 4.12512C18.5447 4.12512 18.8191 4.23877 19.0254 4.44458L19.6804 5.1001C19.8865 5.30603 20 5.58069 20 5.87378C20 6.16675 19.8865 6.44153 19.6804 6.64734L10.7722 15.5559C10.5657 15.7622 10.2896 15.8756 9.99634 15.875C9.7019 15.8756 9.42603 15.7622 9.21948 15.5559Z" fill="#FFFFFF" fill-opacity="1.000000" fill-rule="nonzero"/>
	</g>
</svg>
