<svg width="12.084961" height="19.977509" viewBox="0 0 12.085 19.9775" fill="none" xmlns="http://www.w3.org/2000/svg" xmlns:xlink="http://www.w3.org/1999/xlink">
	<desc>
			Created with Pixso.
	</desc>
	<defs/>
	<path id="Vector" d="M11.8013 10.3208L3.33984 19.6214C3.14404 19.8367 2.87549 19.9627 2.5835 19.9763C2.29175 19.9898 2.0127 19.8892 1.79834 19.6929L1.11548 19.0688C0.670898 18.662 0.639404 17.9689 1.04492 17.5233L8.15015 9.71326L0.354736 2.58627C0.140381 2.39001 0.0146484 2.12097 0.0012207 1.82849C-0.012207 1.53568 0.088623 1.25613 0.28418 1.04071L0.907471 0.356079C1.10327 0.140808 1.37183 0.01474 1.66357 0.00119019C1.95557 -0.0123291 2.23438 0.0883179 2.44897 0.284546L11.7305 8.77005C11.9456 8.96692 12.071 9.23727 12.0837 9.53027C12.0977 9.82434 11.9973 10.105 11.8013 10.3208Z" fill="#595555" fill-opacity="1.000000" fill-rule="nonzero"/>
</svg>
