<svg width="12.085083" height="19.977509" viewBox="0 0 12.0851 19.9775" fill="none" xmlns="http://www.w3.org/2000/svg" xmlns:xlink="http://www.w3.org/1999/xlink">
	<desc>
			Created with Pixso.
	</desc>
	<defs/>
	<path id="Vector" d="M0.283813 9.65671L8.74524 0.35611C8.94092 0.140839 9.20959 0.0147705 9.50146 0.0012207C9.79333 -0.0123291 10.0724 0.0883484 10.2869 0.284576L10.9697 0.908752C11.4141 1.31552 11.4457 2.00864 11.0402 2.45416L3.93494 10.2643L11.7302 17.3912C11.9447 17.5875 12.0706 17.8565 12.0839 18.149C12.0972 18.4418 11.9965 18.7214 11.8008 18.9368L11.1776 19.6214C10.9818 19.8367 10.7134 19.9628 10.4215 19.9763C10.1295 19.9898 9.85059 19.8892 9.63611 19.693L0.354614 11.2075C0.139648 11.0106 0.0141602 10.7402 0.00134277 10.4472C-0.0126953 10.1532 0.0876465 9.8725 0.283813 9.65671Z" fill="#595555" fill-opacity="1.000000" fill-rule="nonzero"/>
</svg>
